<?xml version="1.0" standalone="no"?><!-- Generator: Gravit.io --><svg xmlns="http://www.w3.org/2000/svg" xmlns:xlink="http://www.w3.org/1999/xlink" style="isolation:isolate" viewBox="0 0 90.709 90.709" width="90.709" height="90.709"><rect x="0" y="0" width="90.709" height="90.709" transform="matrix(1,0,0,1,0,0)" fill="none"/><path d=" M 14.394 45.667 C 14.394 28.479 28.348 14.524 45.536 14.524 C 62.724 14.524 76.679 28.479 76.679 45.667 C 76.679 62.855 62.724 76.81 45.536 76.81 C 28.348 76.81 14.394 62.855 14.394 45.667 Z " fill="rgb(0,0,0)"/><path d=" M 69.197 55.374 L 69.197 53.674 C 69.197 45.974 66.197 38.674 60.697 33.174 C 55.297 27.774 47.897 24.774 40.297 24.774 L 40.297 24.774 C 32.597 24.774 25.197 27.774 19.797 33.274 C 14.297 38.674 11.297 46.074 11.297 53.774 L 11.297 53.774 C 11.297 61.374 14.297 68.774 19.697 74.174 C 25.097 79.574 32.497 82.674 40.197 82.674 C 40.197 82.674 40.197 82.674 40.297 82.674 L 40.297 82.674 L 40.097 82.674 L 40.197 82.674 L 46.297 82.074 L 46.697 86.074 L 40.397 86.674 L 40.297 86.674 C 31.497 86.674 23.097 83.274 16.897 77.074 C 10.697 70.874 7.297 62.474 7.297 53.774 L 7.297 53.774 C 7.297 44.974 10.697 36.574 16.897 30.374 C 23.097 24.174 31.497 20.774 40.297 20.774 L 40.297 20.774 C 48.997 20.774 57.397 24.174 63.597 30.374 C 69.797 36.574 73.197 44.974 73.197 53.774 C 73.197 53.774 73.197 53.774 73.197 53.774 L 73.197 55.474 L 69.197 55.374 Z " fill="rgb(0,0,0)"/></svg>